<?xml version="1.0" standalone="no"?>
<!DOCTYPE svg PUBLIC "-//W3C//DTD SVG 20010904//EN"
 "http://www.w3.org/TR/2001/REC-SVG-20010904/DTD/svg10.dtd">
<svg version="1.0" xmlns="http://www.w3.org/2000/svg"
 width="256.000000pt" height="256.000000pt" viewBox="0 0 256.000000 256.000000"
 preserveAspectRatio="xMidYMid meet">
<metadata>
Created by potrace 1.14, written by Peter Selinger 2001-2017
</metadata>
<g transform="translate(0.000000,256.000000) scale(0.100000,-0.100000)"
fill="#000000" stroke="none">
<path d="M498 2080 c-70 -12 -71 -15 -64 -192 4 -87 4 -158 -1 -159 -4 -1 -28
-2 -53 -4 -187 -11 -309 -20 -330 -24 -4 -1 -5 -112 -1 -132 0 -3 13 -11 27
-17 14 -7 22 -17 19 -22 -3 -6 -2 -10 3 -10 23 0 29 -44 33 -239 1 -69 7 -119
19 -150 22 -61 81 -151 98 -151 7 0 10 -5 6 -12 -5 -7 -3 -8 6 -3 8 5 17 2 24
-7 6 -8 16 -16 21 -17 6 0 25 -6 43 -12 31 -10 57 -16 75 -18 5 -1 6 -5 3 -9
-2 -4 4 -8 14 -8 10 0 16 4 14 8 -3 4 0 8 5 8 6 0 11 -5 11 -11 0 -5 4 -8 8
-5 5 3 9 -13 10 -35 2 -39 23 -92 46 -114 46 -44 390 -263 460 -293 73 -32
156 -19 156 24 0 8 4 13 9 10 5 -3 12 1 15 10 3 9 2 12 -5 9 -7 -5 -8 6 -4 32
10 56 14 65 26 57 8 -4 9 -3 5 5 -4 6 -11 9 -16 6 -4 -3 -8 94 -9 215 0 122
-3 225 -6 230 -3 6 -1 10 5 10 6 0 8 5 4 12 -4 6 -6 35 -5 62 1 28 3 92 5 141
2 50 6 99 9 110 3 11 6 30 6 43 1 13 5 20 11 17 6 -4 7 1 3 11 -5 14 -3 16 12
10 11 -4 16 -4 13 0 -4 4 -2 16 3 27 9 16 13 17 20 6 7 -11 9 -11 9 -1 0 9 14
12 45 11 l45 -3 -2 -430 c-3 -404 -4 -431 -20 -428 -10 2 -18 -2 -18 -7 0 -5
9 -8 20 -6 18 4 20 -2 20 -64 0 -87 15 -107 91 -123 l56 -12 256 159 c141 88
253 163 251 167 -3 4 0 8 5 8 6 0 10 3 10 8 -3 19 2 25 11 12 8 -11 9 -6 5 18
-4 23 -1 34 10 38 8 4 15 10 15 16 0 5 -4 6 -10 3 -5 -3 -10 1 -10 9 0 9 3 16
8 17 67 7 82 7 82 -2 0 -6 -4 -7 -10 -4 -5 3 -10 4 -10 1 0 -3 8 -10 19 -15
16 -9 18 -7 14 17 -4 21 -2 24 6 12 10 -13 11 -13 11 0 0 13 1 13 10 0 6 -10
10 -11 10 -2 0 6 5 12 12 12 6 0 8 -3 5 -7 -9 -8 12 -33 27 -33 6 0 3 5 -6 11
-35 20 -10 38 59 43 11 0 19 4 17 7 -5 8 23 22 49 24 10 2 16 -3 14 -10 -3 -6
1 -12 9 -12 12 0 12 4 -1 23 -13 21 -13 23 5 29 11 4 20 13 20 21 0 8 4 14 10
14 5 0 17 16 26 35 9 19 19 33 23 31 3 -2 7 7 7 20 3 41 13 57 32 50 15 -5 15
-5 1 6 -20 16 -20 108 0 132 12 14 12 16 -1 11 -11 -4 -14 3 -13 32 1 21 4 44
8 50 4 6 3 14 -2 17 -5 3 -6 21 -1 40 4 19 5 37 2 40 -3 4 0 6 6 6 7 0 11 5
10 12 -2 7 6 12 17 12 12 0 19 -5 17 -14 -2 -8 0 -11 4 -7 16 16 12 35 -7 32
-10 -2 -19 0 -19 6 0 8 15 13 33 10 5 -1 6 3 2 9 -3 5 -1 10 5 10 7 0 10 24 8
72 -2 57 -6 72 -19 74 -29 4 -356 22 -423 23 l-38 1 5 127 c7 147 -3 184 -55
202 -54 19 -102 12 -255 -35 -81 -25 -191 -58 -244 -74 -140 -43 -167 -75
-178 -210 l-6 -75 -35 0 c-19 1 -59 4 -87 8 -45 7 -53 11 -54 30 -1 19 -2 40
-8 109 -2 30 -68 94 -124 121 -57 27 -392 133 -460 145 -23 4 -59 5 -79 2z
m1602 -460 c0 -3 9 -6 19 -6 11 0 17 4 15 8 -3 4 0 8 5 8 6 0 11 -4 11 -8 0
-5 12 -9 28 -9 64 -1 83 -4 78 -12 -3 -5 5 -8 18 -8 28 0 72 -37 93 -78 18
-33 25 -282 10 -345 -11 -46 -43 -97 -76 -118 -14 -9 -28 -19 -31 -22 -15 -16
-88 -41 -138 -47 -92 -12 -87 -14 -86 42 6 184 16 441 19 457 2 10 5 47 6 82
1 45 6 63 16 63 7 0 13 -3 13 -7z m-1651 -23 c0 -12 2 -51 5 -87 5 -68 15
-245 21 -379 3 -43 5 -83 6 -87 1 -5 1 -21 0 -36 -1 -24 -4 -26 -33 -21 -46 7
-92 27 -132 58 -37 28 -81 108 -72 131 3 8 0 14 -6 14 -6 0 -5 6 3 17 10 12
11 15 1 9 -10 -6 -13 17 -11 113 1 88 4 119 13 114 8 -4 8 -3 -1 7 -12 14 -2
57 25 98 12 18 17 20 23 10 7 -10 9 -9 9 4 0 19 35 42 50 33 6 -3 10 -1 10 4
0 6 5 11 11 11 6 0 9 -8 5 -17 -4 -14 -2 -13 9 2 8 11 26 22 40 23 20 1 25 -3
24 -21z"/>
<path d="M353 1565 c0 -8 4 -12 9 -9 5 3 6 10 3 15 -9 13 -12 11 -12 -6z"/>
<path d="M315 1563 c3 -3 0 -11 -5 -18 -7 -8 -5 -12 4 -12 14 0 16 22 3 32 -4
3 -5 2 -2 -2z"/>
<path d="M266 1522 c-2 -4 4 -8 14 -8 10 0 16 4 14 8 -3 4 -9 8 -14 8 -5 0
-11 -4 -14 -8z"/>
<path d="M256 1433 c-6 -14 -5 -15 5 -6 7 7 10 15 7 18 -3 3 -9 -2 -12 -12z"/>
<path d="M310 922 c0 -5 7 -9 15 -9 8 0 12 4 9 9 -3 4 -9 8 -15 8 -5 0 -9 -4
-9 -8z"/>
<path d="M1225 920 c-3 -6 1 -7 9 -4 18 7 21 14 7 14 -6 0 -13 -4 -16 -10z"/>
<path d="M346 901 c-3 -4 6 -7 19 -7 14 0 22 2 19 5 -8 8 -34 10 -38 2z"/>
<path d="M2260 906 c0 -2 8 -10 18 -17 15 -13 16 -12 3 4 -13 16 -21 21 -21
13z"/>
<path d="M1214 886 c1 -8 5 -18 8 -22 4 -3 5 1 4 10 -1 8 -5 18 -8 22 -4 3 -5
-1 -4 -10z"/>
<path d="M1310 896 c0 -2 8 -10 18 -17 15 -13 16 -12 3 4 -13 16 -21 21 -21
13z"/>
<path d="M2069 871 c5 -9 6 -22 4 -28 -3 -7 0 -13 7 -13 6 0 8 5 5 10 -6 10 6
14 35 11 11 -1 11 1 -3 9 -9 6 -22 8 -29 4 -7 -5 -9 -2 -6 8 4 8 0 15 -7 15
-9 0 -11 -6 -6 -16z"/>
<path d="M1282 843 c25 -27 39 -32 15 -5 -10 10 -15 21 -12 24 3 2 -2 5 -10 5
-12 0 -10 -6 7 -24z"/>
<path d="M1194 793 c-10 -7 -13 -13 -7 -13 7 0 15 5 18 10 4 6 10 8 14 6 4 -3
13 -1 21 4 11 7 10 9 -7 7 -12 0 -29 -7 -39 -14z"/>
<path d="M1235 781 c-3 -5 0 -13 6 -17 7 -4 9 -3 5 4 -3 5 0 13 6 15 9 4 10 6
1 6 -6 1 -14 -3 -18 -8z"/>
<path d="M1195 720 c-3 -5 -1 -10 4 -10 6 0 11 5 11 10 0 6 -2 10 -4 10 -3 0
-8 -4 -11 -10z"/>
<path d="M1253 717 c-4 -6 -1 -7 7 -2 10 6 12 4 7 -8 -9 -23 0 -22 12 1 8 14
6 19 -5 19 -8 0 -18 -5 -21 -10z"/>
<path d="M1218 688 c5 -5 16 -8 23 -6 8 3 3 7 -10 11 -17 4 -21 3 -13 -5z"/>
<path d="M1270 676 c0 -2 7 -9 15 -16 13 -11 14 -10 9 4 -5 14 -24 23 -24 12z"/>
<path d="M1194 646 c0 -17 4 -22 15 -18 10 4 12 1 6 -8 -6 -9 -4 -11 5 -5 10
6 10 10 -2 19 -8 6 -13 17 -11 24 3 6 1 12 -4 12 -5 0 -9 -11 -9 -24z"/>
<path d="M1243 655 c-3 -9 -3 -18 -1 -21 3 -3 8 4 11 16 6 23 -1 27 -10 5z"/>
<path d="M1273 614 c0 -17 25 -26 33 -12 5 7 2 8 -6 3 -9 -6 -12 -4 -8 7 4 8
1 15 -6 15 -7 0 -13 -6 -13 -13z"/>
<path d="M1220 600 c-9 -6 -10 -10 -3 -10 6 0 15 5 18 10 8 12 4 12 -15 0z"/>
<path d="M1220 576 c0 -2 7 -7 16 -10 8 -3 12 -2 9 4 -6 10 -25 14 -25 6z"/>
</g>
</svg>
